<svg width="400" height="250" viewBox="0 0 400 250" xmlns="http://www.w3.org/2000/svg">
  <defs>
    <filter id="neonGlow" x="-20%" y="-20%" width="140%" height="140%">
      <feGaussianBlur stdDeviation="3" result="blur" />
      <feComposite in="SourceGraphic" in2="blur" operator="over" />
    </filter>
  </defs>
  
  <g fill="none" stroke="#00ffcc" stroke-width="4" stroke-linecap="round" stroke-linejoin="round" filter="url(#neonGlow)">
    <!-- Circuit Lines Left -->
    <path d="M120 100 L80 100 L60 80 L20 80" />
    <circle cx="20" cy="80" r="4" fill="#00ffcc" stroke="none" />
    
    <path d="M120 110 L90 110 L70 130 L30 130" />
    <circle cx="30" cy="130" r="4" fill="#00ffcc" stroke="none" />
    
    <path d="M120 90 L100 90 L85 65 L40 65" />
    <circle cx="40" cy="65" r="4" fill="#00ffcc" stroke="none" />

    <!-- Circuit Lines Right -->
    <path d="M280 100 L320 100 L340 80 L380 80" />
    <circle cx="380" cy="80" r="4" fill="#00ffcc" stroke="none" />
    
    <path d="M280 110 L310 110 L330 130 L370 130" />
    <circle cx="370" cy="130" r="4" fill="#00ffcc" stroke="none" />
    
    <path d="M280 90 L300 90 L315 65 L360 65" />
    <circle cx="360" cy="65" r="4" fill="#00ffcc" stroke="none" />

    <!-- Central Circle -->
    <circle cx="200" cy="100" r="45" stroke-width="8" />
  </g>

  <!-- ETI Text -->
  <text x="200" y="115" font-family="Montserrat, sans-serif" font-size="36" font-weight="900" fill="#ffffff" text-anchor="middle" filter="url(#neonGlow)">ETI</text>

  <!-- TECNOLOGIES Text -->
  <text x="200" y="185" font-family="Montserrat, sans-serif" font-size="24" font-weight="400" fill="#00ffcc" text-anchor="middle" letter-spacing="8">TECNOLOGIES</text>

  <!-- Tagline -->
  <text x="200" y="220" font-family="Inter, sans-serif" font-size="10" font-weight="300" fill="#888888" text-anchor="middle">Inovação ao seu alcance, tecnologia que conecta você ao futuro</text>
</svg>
